<svg xmlns="http://www.w3.org/2000/svg" id="XMLID_206_" width="284.3" height="95" viewBox="0 0 284.3 95"><g id="XMLID_267_"><path id="XMLID_271_" d="M284.3,20.1V17.9a38.841,38.841,0,0,0-.4-4.8,14.052,14.052,0,0,0-1.5-4.5,17.482,17.482,0,0,0-2.8-3.9,14.948,14.948,0,0,0-3.8-2.8A18.32,18.32,0,0,0,271.3.4a25.923,25.923,0,0,0-4.8-.4H17.9a25.923,25.923,0,0,0-4.8.4A17.022,17.022,0,0,0,8.6,1.9,21.39,21.39,0,0,0,4.7,4.7,21.39,21.39,0,0,0,1.9,8.6,17.022,17.022,0,0,0,.4,13.1,25.923,25.923,0,0,0,0,17.9V77.2A25.923,25.923,0,0,0,.4,82a14.052,14.052,0,0,0,1.5,4.5,14.948,14.948,0,0,0,2.8,3.8,14.948,14.948,0,0,0,3.8,2.8A17.022,17.022,0,0,0,13,94.6a25.923,25.923,0,0,0,4.8.4H266.4a25.922,25.922,0,0,0,4.8-.4,17.022,17.022,0,0,0,4.5-1.5,15.754,15.754,0,0,0,6.6-6.6,17.021,17.021,0,0,0,1.5-4.5,25.924,25.924,0,0,0,.4-4.8V22.7A23.482,23.482,0,0,0,284.3,20.1Z" fill="#030202"></path><path id="XMLID_268_" d="M261.6,2h4.8a25.75,25.75,0,0,1,4.5.4,18.707,18.707,0,0,1,4,1.3,16.085,16.085,0,0,1,3.4,2.4,12.662,12.662,0,0,1,2.4,3.3,15.65,15.65,0,0,1,1.3,4,22.5,22.5,0,0,1,.4,4.4V77a34.191,34.191,0,0,1-.4,4.5,14.414,14.414,0,0,1-1.3,4,14.232,14.232,0,0,1-2.5,3.4,12.662,12.662,0,0,1-3.3,2.4,15.651,15.651,0,0,1-4,1.3,23.2,23.2,0,0,1-4.4.4H18a24.967,24.967,0,0,1-4.5-.4,15.651,15.651,0,0,1-4-1.3,11.479,11.479,0,0,1-3.4-2.5,12.662,12.662,0,0,1-2.4-3.3,15.651,15.651,0,0,1-1.3-4A23.2,23.2,0,0,1,2,77.1V17.9a25.75,25.75,0,0,1,.4-4.5,15.651,15.651,0,0,1,1.3-4A13.885,13.885,0,0,1,6.1,6,12.662,12.662,0,0,1,9.4,3.6a12.541,12.541,0,0,1,4-1.3A40.506,40.506,0,0,1,17.9,2H261.6m0-2H17.8A25.923,25.923,0,0,0,13,.4,17.608,17.608,0,0,0,8.6,1.9,21.39,21.39,0,0,0,4.7,4.7,21.39,21.39,0,0,0,1.9,8.6,17.022,17.022,0,0,0,.4,13.1,25.923,25.923,0,0,0,0,17.9V77.2A25.923,25.923,0,0,0,.4,82a14.052,14.052,0,0,0,1.5,4.5,14.948,14.948,0,0,0,2.8,3.8,14.948,14.948,0,0,0,3.8,2.8A17.022,17.022,0,0,0,13,94.6a25.923,25.923,0,0,0,4.8.4H266.4a25.922,25.922,0,0,0,4.8-.4,17.022,17.022,0,0,0,4.5-1.5,15.754,15.754,0,0,0,6.6-6.6,17.021,17.021,0,0,0,1.5-4.5,25.924,25.924,0,0,0,.4-4.8V17.9a38.841,38.841,0,0,0-.4-4.8,14.052,14.052,0,0,0-1.5-4.5,17.482,17.482,0,0,0-2.8-3.9,14.948,14.948,0,0,0-3.8-2.8A18.32,18.32,0,0,0,271.2.4a25.923,25.923,0,0,0-4.8-.4h-4.8Z" fill="#909295"></path></g><g id="XMLID_233_"><path id="XMLID_264_" d="M89.9,20.7c4.2,0,6.7,2.6,6.7,7,0,4.5-2.4,7.1-6.7,7.1H84.8V20.7Zm-3,12.2h2.7c3,0,4.7-1.8,4.7-5.1,0-3.2-1.7-5.1-4.7-5.1H86.9Z" fill="#fff"></path><path id="XMLID_261_" d="M99,29.6c0-3.4,1.9-5.6,5-5.6s5,2.1,5,5.6-1.9,5.6-5,5.6C100.9,35.1,99,33,99,29.6Zm7.9,0c0-2.3-1-3.7-2.9-3.7-1.8,0-2.9,1.4-2.9,3.7s1,3.7,2.9,3.7C105.9,33.2,106.9,31.9,106.9,29.6Z" fill="#fff"></path><path id="XMLID_259_" d="M122.5,34.9h-2.2L118.1,27H118l-2.2,7.9h-2.2l-3-10.7h2.1l1.9,8.2h.2l2.2-8.2h2l2.2,8.2h.2l1.9-8.2h2.1Z" fill="#fff"></path><path id="XMLID_257_" d="M127.9,24.2h2v1.7h.2a3.185,3.185,0,0,1,3.2-1.9c2.4,0,3.7,1.4,3.7,4v6.9h-2.1V28.5c0-1.7-.7-2.6-2.3-2.6a2.445,2.445,0,0,0-2.6,2.7v6.3h-2.1V24.2Z" fill="#fff"></path><path id="XMLID_255_" d="M140.4,20h2.1V34.9h-2.1Z" fill="#fff"></path><path id="XMLID_252_" d="M145.4,29.6c0-3.4,1.9-5.6,5-5.6s5,2.1,5,5.6-1.9,5.6-5,5.6C147.3,35.1,145.4,33,145.4,29.6Zm8,0c0-2.3-1-3.7-2.9-3.7-1.8,0-2.9,1.4-2.9,3.7s1,3.7,2.9,3.7C152.3,33.2,153.4,31.9,153.4,29.6Z" fill="#fff"></path><path id="XMLID_249_" d="M157.7,31.9c0-1.9,1.4-3,4-3.2l2.9-.2v-.9c0-1.1-.7-1.8-2.2-1.8-1.2,0-2,.4-2.2,1.2h-2c.2-1.8,1.9-3,4.4-3,2.7,0,4.2,1.3,4.2,3.6v7.3h-2V33.4h-.2a3.5,3.5,0,0,1-3.2,1.7C159.2,35.1,157.7,33.8,157.7,31.9Zm6.9-.9v-.9l-2.6.2c-1.5.1-2.1.6-2.1,1.5,0,1,.8,1.5,2,1.5A2.5,2.5,0,0,0,164.6,31Z" fill="#fff"></path><path id="XMLID_246_" d="M169.5,29.6c0-3.4,1.7-5.5,4.4-5.5a3.522,3.522,0,0,1,3.3,1.9h.2V20h2.1V34.9h-2V33.2h-.2a3.676,3.676,0,0,1-3.4,1.9C171.2,35.1,169.5,33,169.5,29.6Zm2.2,0c0,2.3,1.1,3.6,2.9,3.6s2.9-1.4,2.9-3.6-1.1-3.6-2.9-3.6C172.8,25.9,171.7,27.3,171.7,29.6Z" fill="#fff"></path><path id="XMLID_243_" d="M188.2,29.6c0-3.4,1.9-5.6,5-5.6s5,2.1,5,5.6-1.9,5.6-5,5.6C190.1,35.1,188.2,33,188.2,29.6Zm7.9,0c0-2.3-1-3.7-2.9-3.7-1.8,0-2.9,1.4-2.9,3.7s1,3.7,2.9,3.7C195.1,33.2,196.1,31.9,196.1,29.6Z" fill="#fff"></path><path id="XMLID_241_" d="M201.1,24.2h2v1.7h.2a3.185,3.185,0,0,1,3.2-1.9c2.4,0,3.7,1.4,3.7,4v6.9h-2.1V28.5c0-1.7-.7-2.6-2.3-2.6a2.445,2.445,0,0,0-2.6,2.7v6.3h-2.1V24.2Z" fill="#fff"></path><path id="XMLID_239_" d="M222.2,21.6v2.7h2.3V26h-2.3v5.5c0,1.1.5,1.6,1.5,1.6h.8v1.8a4.121,4.121,0,0,1-1.2.1c-2.3,0-3.3-.8-3.3-2.9v-6h-1.7V24.3H220V21.6h2.2Z" fill="#fff"></path><path id="XMLID_237_" d="M227.4,20h2.1v5.9h.2A3.328,3.328,0,0,1,233,24c2.3,0,3.7,1.4,3.7,4v6.9h-2.1V28.5c0-1.7-.8-2.6-2.3-2.6a2.52,2.52,0,0,0-2.7,2.7v6.2h-2.1V20Z" fill="#fff"></path><path id="XMLID_234_" d="M248.9,32c-.5,1.9-2.2,3.1-4.6,3.1-3.1,0-4.9-2.1-4.9-5.5s1.9-5.6,4.9-5.6,4.8,2,4.8,5.4v.7h-7.6v.1c.1,1.9,1.2,3.1,2.8,3.1a2.444,2.444,0,0,0,2.5-1.3Zm-7.4-3.4h5.4a2.577,2.577,0,0,0-2.6-2.8A2.793,2.793,0,0,0,241.5,28.6Z" fill="#fff"></path></g><g id="XMLID_229_"><g id="XMLID_230_"><path id="XMLID_232_" d="M58.8,48.2c-.1-6.5,5.4-9.7,5.6-9.9a11.779,11.779,0,0,0-9.5-5.1c-4-.4-7.9,2.4-9.9,2.4-2.1,0-5.2-2.3-8.6-2.3a12.694,12.694,0,0,0-10.6,6.5c-4.6,8-1.2,19.6,3.2,26.1,2.2,3.1,4.8,6.7,8.1,6.5,3.3-.1,4.5-2.1,8.5-2.1,3.9,0,5.1,2.1,8.5,2,3.5-.1,5.8-3.2,7.9-6.3a27.123,27.123,0,0,0,3.6-7.3A11.629,11.629,0,0,1,58.8,48.2Z" fill="#fff"></path><path id="XMLID_231_" d="M52.4,29A11.088,11.088,0,0,0,55,20.7a11.74,11.74,0,0,0-7.6,3.9,10.986,10.986,0,0,0-2.7,8C47.5,32.9,50.5,31.2,52.4,29Z" fill="#fff"></path></g></g><g id="XMLID_207_"><path id="XMLID_226_" d="M100.5,64.5H89.2l-2.7,8H81.7L92.4,43h4.9L108,72.4h-4.8ZM90.4,60.8h8.9L94.9,47.9h-.1Z" fill="#fff"></path><path id="XMLID_223_" d="M131,61.7c0,6.7-3.6,11-9,11a7.352,7.352,0,0,1-6.8-3.8h-.1V79.6h-4.4V50.9H115v3.6h.1a7.539,7.539,0,0,1,6.8-3.8C127.4,50.7,131,55,131,61.7Zm-4.5,0c0-4.4-2.3-7.2-5.7-7.2s-5.6,2.9-5.6,7.2,2.3,7.2,5.6,7.2C124.3,68.9,126.5,66.1,126.5,61.7Z" fill="#fff"></path><path id="XMLID_220_" d="M154.7,61.7c0,6.7-3.6,11-9,11a7.352,7.352,0,0,1-6.8-3.8h-.1V79.6h-4.4V50.9h4.3v3.6h.1a7.539,7.539,0,0,1,6.8-3.8C151.1,50.7,154.7,55,154.7,61.7Zm-4.5,0c0-4.4-2.3-7.2-5.7-7.2s-5.6,2.9-5.6,7.2,2.3,7.2,5.6,7.2C147.9,68.9,150.2,66.1,150.2,61.7Z" fill="#fff"></path><path id="XMLID_218_" d="M170.4,64.2c.3,2.9,3.2,4.8,7.1,4.8,3.7,0,6.4-1.9,6.4-4.6,0-2.3-1.6-3.7-5.4-4.6l-3.8-.9c-5.4-1.3-7.9-3.8-7.9-8,0-5.1,4.4-8.6,10.7-8.6,6.2,0,10.5,3.5,10.7,8.6h-4.5c-.3-2.9-2.7-4.7-6.3-4.7s-6,1.8-6,4.4c0,2.1,1.6,3.3,5.4,4.3l3.3.8c6.1,1.4,8.6,3.9,8.6,8.2,0,5.5-4.4,9-11.4,9-6.5,0-11-3.4-11.2-8.7h4.3Z" fill="#fff"></path><path id="XMLID_216_" d="M198,45.8v5.1h4.1v3.5H198V66.3c0,1.8.8,2.7,2.6,2.7.5,0,1.2-.1,1.5-.1v3.5a14.728,14.728,0,0,1-2.5.2c-4.4,0-6.1-1.6-6.1-5.8V54.4h-3.1V50.9h3.1V45.8H198Z" fill="#fff"></path><path id="XMLID_213_" d="M204.5,61.7c0-6.8,4-11,10.2-11s10.2,4.3,10.2,11c0,6.8-3.9,11-10.2,11S204.5,68.5,204.5,61.7Zm15.9,0c0-4.6-2.1-7.4-5.7-7.4s-5.7,2.8-5.7,7.4c0,4.7,2.1,7.4,5.7,7.4C218.2,69.1,220.4,66.4,220.4,61.7Z" fill="#fff"></path><path id="XMLID_211_" d="M228.5,50.9h4.2v3.7h.1a5.176,5.176,0,0,1,5.2-3.9,5.418,5.418,0,0,1,1.5.2V55a6.96,6.96,0,0,0-2-.3c-2.8,0-4.6,1.9-4.6,4.9V72.4h-4.4Z" fill="#fff"></path><path id="XMLID_208_" d="M259.9,66.1c-.6,3.9-4.4,6.6-9.3,6.6-6.3,0-10.1-4.2-10.1-10.9s3.9-11.1,10-11.1c6,0,9.7,4.1,9.7,10.6v1.5H245v.3c0,3.7,2.3,6.1,5.8,6.1,2.5,0,4.4-1.2,5-3h4.1Zm-15-6.4h10.8c-.1-3.3-2.2-5.5-5.3-5.5A5.684,5.684,0,0,0,244.9,59.7Z" fill="#fff"></path></g></svg>