<svg xmlns="http://www.w3.org/2000/svg" xmlns:xlink="http://www.w3.org/1999/xlink" id="Google_Play_Store_badge_EN" width="284.3" height="95.386" viewBox="0 0 284.3 95.386"><defs><linearGradient id="linear-gradient" x1="2.472" y1="1.035" x2="2.361" y2="1.005" gradientUnits="objectBoundingBox"><stop offset="0" stop-color="#00a0ff"></stop><stop offset="0.007" stop-color="#00a1ff"></stop><stop offset="0.26" stop-color="#00beff"></stop><stop offset="0.512" stop-color="#00d2ff"></stop><stop offset="0.76" stop-color="#00dfff"></stop><stop offset="1" stop-color="#00e3ff"></stop></linearGradient><linearGradient id="linear-gradient-2" x1="1.95" y1="1.879" x2="1.69" y2="1.879" gradientUnits="objectBoundingBox"><stop offset="0" stop-color="#ffe000"></stop><stop offset="0.409" stop-color="#ffbd00"></stop><stop offset="0.775" stop-color="orange"></stop><stop offset="1" stop-color="#ff9c00"></stop></linearGradient><linearGradient id="linear-gradient-3" x1="1.926" y1="0.946" x2="1.835" y2="0.793" gradientUnits="objectBoundingBox"><stop offset="0" stop-color="#ff3a44"></stop><stop offset="1" stop-color="#c31162"></stop></linearGradient><linearGradient id="linear-gradient-4" x1="1.856" y1="2.093" x2="1.897" y2="2.025" gradientUnits="objectBoundingBox"><stop offset="0" stop-color="#32a071"></stop><stop offset="0.068" stop-color="#2da771"></stop><stop offset="0.476" stop-color="#15cf74"></stop><stop offset="0.801" stop-color="#06e775"></stop><stop offset="1" stop-color="#00f076"></stop></linearGradient></defs><path id="Path_1" data-name="Path 1" d="M273.767,95.386H10.534C4.728,95.386,0,90.01,0,83.462V11.923C0,5.352,4.728,0,10.534,0H273.767c5.8,0,10.534,5.352,10.534,11.923V83.462C284.3,90.01,279.567,95.386,273.767,95.386Z" transform="translate(0 0)" fill-rule="evenodd"></path><path id="Path_2" data-name="Path 2" d="M273.767,1.909c4.869,0,8.855,4.5,8.855,10.014V83.462c0,5.513-3.959,10.014-8.855,10.014H10.534c-4.869,0-8.855-4.5-8.855-10.014V11.923c0-5.513,3.959-10.014,8.855-10.014Zm0-1.909H10.534C4.728,0,0,5.376,0,11.923V83.462c0,6.571,4.728,11.923,10.534,11.923H273.767c5.8,0,10.534-5.352,10.534-11.923V11.923C284.3,5.376,279.567,0,273.767,0Z" transform="translate(0 0)" fill="#a6a6a6" fill-rule="evenodd"></path><path id="Path_3" data-name="Path 3" d="M1717.548,286.72a6.027,6.027,0,0,1-4.765-2.242,8.219,8.219,0,0,1-1.925-5.471,8.03,8.03,0,0,1,1.925-5.465,6.009,6.009,0,0,1,4.76-2.242,6.086,6.086,0,0,1,4.764,2.242,8.722,8.722,0,0,1,0,10.93A5.978,5.978,0,0,1,1717.548,286.72Zm-56.491,0a6.232,6.232,0,0,1-4.786-2.212,8.642,8.642,0,0,1,0-10.99,6.155,6.155,0,0,1,4.786-2.212,5.989,5.989,0,0,1,2.673.63,5.487,5.487,0,0,1,2.034,1.653l.126.172-1.418,1.582-.146-.2a3.83,3.83,0,0,0-3.29-1.612,4.283,4.283,0,0,0-3.279,1.522,6.371,6.371,0,0,0,0,7.921,4.389,4.389,0,0,0,6.648,0,4.4,4.4,0,0,0,.962-2.48h-4.545v-2.224h6.5l.026.2a9.237,9.237,0,0,1,.094,1.118,7.233,7.233,0,0,1-1.622,4.936A5.964,5.964,0,0,1,1661.057,286.72Zm75.11-.315h-2l-6.135-11.162.052,2.01V286.4h-2V271.621h2.286l.063.113,5.769,10.514-.052-2v-8.623h2.024Zm-33.672,0h-2.029v-12.56h-3.52v-2.224h9.064v2.224h-3.52V286.4Zm-7.2,0h-2.024V271.621h2.024Zm-11.375,0h-2.024v-12.56h-3.52v-2.224h9.064v2.224h-3.52Zm-6.825-.024h-7.762v-14.76h7.762v2.224h-5.732V277.9h5.173v2.2h-5.173v4.056h5.732Zm37.176-3.431a4.227,4.227,0,0,0,3.28,1.546,4.122,4.122,0,0,0,3.279-1.546,6.466,6.466,0,0,0,.005-7.874,4.234,4.234,0,0,0-3.279-1.546,4.1,4.1,0,0,0-3.274,1.546,6.478,6.478,0,0,0-.011,7.874Z" transform="translate(-1567.778 -255.166)" fill="#fff"></path><path id="Path_4" data-name="Path 4" d="M1703.468,694.263c-4.942,0-8.949,4.264-8.949,10.145,0,5.828,4.032,10.145,8.949,10.145,4.943,0,8.949-4.294,8.949-10.145C1712.417,698.527,1708.41,694.263,1703.468,694.263Zm0,16.27c-2.7,0-5.031-2.545-5.031-6.149,0-3.657,2.333-6.149,5.031-6.149s5.031,2.492,5.031,6.149C1708.5,708.012,1706.172,710.533,1703.468,710.533Zm-19.524-16.27c-4.943,0-8.949,4.264-8.949,10.145,0,5.828,4.032,10.145,8.949,10.145,4.943,0,8.949-4.294,8.949-10.145C1692.893,698.527,1688.881,694.263,1683.944,694.263Zm0,16.27c-2.7,0-5.031-2.545-5.031-6.149,0-3.657,2.333-6.149,5.031-6.149s5.031,2.492,5.031,6.149C1688.975,708.012,1686.648,710.533,1683.944,710.533Zm-23.232-13.172v4.294h9.064a9.676,9.676,0,0,1-2.05,5.406,8.745,8.745,0,0,1-6.993,3.152c-5.57,0-9.927-5.114-9.927-11.448s4.357-11.447,9.927-11.447a9.107,9.107,0,0,1,6.825,3.074l2.678-3.045a12.421,12.421,0,0,0-9.482-4.347c-7.641,0-14.053,7.077-14.053,15.741,0,8.688,6.407,15.741,14.053,15.741a11.951,11.951,0,0,0,9.671-4.424c2.495-2.837,3.285-6.839,3.285-10.068a15.053,15.053,0,0,0-.209-2.676h-12.793C1660.711,697.308,1660.711,697.361,1660.711,697.361Zm95.026,3.342c-.748-2.278-3.007-6.464-7.641-6.464-4.592,0-8.41,4.109-8.41,10.145,0,5.7,3.776,10.145,8.854,10.145a8.7,8.7,0,0,0,7.432-4.5l-3.028-2.307a4.985,4.985,0,0,1-4.383,2.807c-2,0-3.4-1.035-4.336-3.074l11.93-5.62C1756.156,701.839,1755.738,700.7,1755.738,700.7Zm-12.165,3.39c-.094-3.919,2.678-5.911,4.66-5.911a3.4,3.4,0,0,1,3.311,2.147Zm-9.691,9.83h3.917v-29.8h-3.917Zm-6.433-17.406h-.141a5.875,5.875,0,0,0-4.707-2.278c-4.451,0-8.551,4.454-8.551,10.175,0,5.7,4.08,10.1,8.551,10.1a5.867,5.867,0,0,0,4.707-2.307h.141v1.457c0,3.871-1.82,5.959-4.754,5.959-2.4,0-3.891-1.962-4.5-3.6l-3.4,1.618c.978,2.676,3.588,5.988,7.9,5.988,4.592,0,8.483-3.074,8.483-10.573v-18.2h-3.7v1.671Zm-4.5,14.016c-2.7,0-4.963-2.569-4.963-6.119,0-3.58,2.26-6.173,4.963-6.173,2.678,0,4.754,2.623,4.754,6.173C1727.73,707.964,1725.633,710.533,1722.95,710.533Zm51.13-26.415h-9.367v29.8h3.917V702.636h5.455c4.336,0,8.6-3.574,8.6-9.247S1778.437,684.118,1774.08,684.118Zm.115,14.355h-5.57V688.245h5.57c2.934,0,4.592,2.753,4.592,5.114C1778.787,695.7,1777.108,698.473,1774.2,698.473Zm24.189-4.264a7.273,7.273,0,0,0-6.993,4.555l3.473,1.641a3.642,3.642,0,0,1,3.567-2.2,3.949,3.949,0,0,1,4.126,3.842v.315a7.963,7.963,0,0,0-4.079-1.142c-3.75,0-7.552,2.331-7.552,6.7a6.4,6.4,0,0,0,6.5,6.571,5.384,5.384,0,0,0,4.984-2.914h.141v2.307h3.776V702.47C1806.329,697.153,1802.856,694.21,1798.385,694.21Zm-.492,16.324c-1.281,0-3.075-.714-3.075-2.545,0-2.307,2.239-3.182,4.147-3.182a6.174,6.174,0,0,1,3.567,1.005A4.983,4.983,0,0,1,1797.893,710.533Zm22.212-15.687-4.5,12.928h-.141l-4.66-12.928h-4.215l6.993,18.072-3.985,10.044h4.079l10.758-28.116Zm-35.262,19.077h3.917v-29.8h-3.917Z" transform="translate(-1560.575 -642.384)" fill="#fff" fill-rule="evenodd"></path><path id="Path_5" data-name="Path 5" d="M401.057,299.561a5.267,5.267,0,0,0-.957,3.366v52.73a5,5,0,0,0,.978,3.336l.162.161,25.983-29.543v-.66l-26-29.549Z" transform="translate(-379.174 -281.595)" fill-rule="evenodd" fill="url(#linear-gradient)"></path><path id="Path_6" data-name="Path 6" d="M926.966,650.9l-8.666-9.854v-.69l8.666-9.854.188.131,10.251,6.625c2.934,1.879,2.934,4.983,0,6.886l-10.251,6.625Z" transform="translate(-870.271 -593.006)" fill-rule="evenodd" fill="url(#linear-gradient-2)"></path><path id="Path_7" data-name="Path 7" d="M453.4,812.068,444.545,802,418.4,831.728c.957,1.166,2.563,1.3,4.357.161l30.643-19.82" transform="translate(-396.517 -754.307)" fill-rule="evenodd" fill="url(#linear-gradient-3)"></path><path id="Path_8" data-name="Path 8" d="M453.4,307.069l-30.643-19.791c-1.794-1.165-3.4-1-4.357.161l26.146,29.7Z" transform="translate(-396.517 -269.444)" fill-rule="evenodd" fill="url(#linear-gradient-4)"></path><path id="Path_9" data-name="Path 9" d="M453.591,967.7l-30.434,19.66c-1.7,1.112-3.217,1.035-4.195.024l-.162.184.162.161c.978,1,2.495,1.088,4.195-.024L453.8,967.914Z" transform="translate(-396.896 -910.153)" fill-rule="evenodd" opacity="0.2"></path><path id="Path_10" data-name="Path 10" d="M1093.965,805.1l-10.465,6.755.188.214,10.251-6.625a4.2,4.2,0,0,0,2.192-3.443A4.258,4.258,0,0,1,1093.965,805.1Z" transform="translate(-1026.831 -754.307)" fill-rule="evenodd" opacity="0.12"></path><path id="Path_11" data-name="Path 11" d="M405.414,287.459l40.894,26.415a4.339,4.339,0,0,1,2.191,3.1,4.2,4.2,0,0,0-2.191-3.443l-40.894-26.415c-2.934-1.909-5.314-.315-5.314,3.5v.345C400.1,287.138,402.48,285.574,405.414,287.459Z" transform="translate(-379.174 -269.28)" fill="#fff" fill-rule="evenodd" opacity="0.25"></path></svg>